<svg width="123.672" height="34.707" viewBox="0 0 123.672 34.707" xmlns="http://www.w3.org/2000/svg"><g id="svgGroup" stroke-linecap="round" fill-rule="nonzero" font-size="9pt" stroke="#e2e2e2" stroke-width="0.25mm" fill="#db3d3d" style="stroke:#e2e2e2;stroke-width:0.25mm;fill:#db3d3d"><path d="M 50.625 15.274 L 50.625 15.645 A 22.741 22.741 0 0 1 50.389 18.374 A 25.847 25.847 0 0 1 50.283 19.043 Q 49.98 20.801 49.434 22.559 A 32.142 32.142 0 0 1 48.125 26.035 A 29.642 29.642 0 0 1 46.416 29.326 A 27.797 27.797 0 0 1 44.375 32.276 A 18.971 18.971 0 0 1 42.678 34.151 A 16.612 16.612 0 0 1 42.07 34.707 L 39.16 33.027 A 18.518 18.518 0 0 0 40.114 31.184 A 21.268 21.268 0 0 0 40.4 30.518 A 31.565 31.565 0 0 0 41.378 27.769 A 34.39 34.39 0 0 0 41.406 27.676 Q 41.855 26.192 42.178 24.629 Q 42.5 23.067 42.715 21.524 Q 42.93 19.981 43.037 18.486 A 41.719 41.719 0 0 0 43.134 16.501 A 35.573 35.573 0 0 0 43.145 15.645 Q 43.145 14.59 43.135 13.252 Q 43.125 11.914 42.979 10.527 A 19.411 19.411 0 0 0 42.5 7.822 Q 42.168 6.504 41.514 5.469 A 5.116 5.116 0 0 0 39.834 3.809 A 4.101 4.101 0 0 0 38.564 3.312 Q 38.049 3.2 37.456 3.186 A 7.224 7.224 0 0 0 37.285 3.184 A 6.644 6.644 0 0 0 36.216 3.265 Q 35.53 3.377 34.971 3.643 A 4.991 4.991 0 0 0 33.33 4.873 A 6.034 6.034 0 0 0 32.314 6.519 A 6.847 6.847 0 0 0 32.256 6.66 A 12.506 12.506 0 0 0 31.631 8.799 A 16.591 16.591 0 0 0 31.338 11.065 A 38.742 38.742 0 0 0 31.279 12.443 A 32.354 32.354 0 0 0 31.27 13.223 L 31.27 18.672 L 39.688 18.672 L 39.688 21.895 L 31.27 21.895 L 31.27 28.731 L 23.516 28.731 L 23.516 14.434 A 16.952 16.952 0 0 1 23.998 10.334 A 15.079 15.079 0 0 1 24.492 8.731 A 13.96 13.96 0 0 1 26.614 4.904 A 13.058 13.058 0 0 1 27.256 4.151 Q 29.043 2.207 31.553 1.104 A 13.101 13.101 0 0 1 35.55 0.078 A 16.072 16.072 0 0 1 37.148 0 A 13.015 13.015 0 0 1 40.016 0.308 A 11.597 11.597 0 0 1 41.064 0.596 A 12.7 12.7 0 0 1 44.395 2.236 A 13.28 13.28 0 0 1 47.08 4.717 A 14.62 14.62 0 0 1 49.053 7.852 A 17.018 17.018 0 0 1 50.254 11.445 A 16.458 16.458 0 0 1 50.628 14.938 A 16.634 16.634 0 0 1 50.625 15.274 Z M 123.672 25.137 L 123.672 28.731 L 103.477 28.731 L 103.477 0.606 L 123.672 0.606 L 123.672 4.199 L 111.23 4.199 L 111.23 12.891 L 120.84 12.891 L 120.84 16.465 L 111.23 16.465 L 111.23 25.137 L 123.672 25.137 Z M 67.227 4.199 L 67.227 28.731 L 59.473 28.731 L 59.473 4.199 L 51.816 4.199 L 51.816 0.606 L 74.883 0.606 L 74.883 4.199 L 67.227 4.199 Z M 91.855 4.199 L 91.855 28.731 L 84.102 28.731 L 84.102 4.199 L 76.445 4.199 L 76.445 0.606 L 99.512 0.606 L 99.512 4.199 L 91.855 4.199 Z M 20.195 25.156 L 20.195 28.731 L 0 28.731 L 0 0.606 L 7.754 0.606 L 7.754 25.156 L 20.195 25.156 Z"/></g></svg>